<?xml version="1.0" encoding="UTF-8" standalone="no"?>
<!-- Generator: Adobe Illustrator 16.0.4, SVG Export Plug-In . SVG Version: 6.00 Build 0)  -->

<svg
   xmlns:dc="http://purl.org/dc/elements/1.1/"
   xmlns:cc="http://creativecommons.org/ns#"
   xmlns:rdf="http://www.w3.org/1999/02/22-rdf-syntax-ns#"
   xmlns:svg="http://www.w3.org/2000/svg"
   xmlns="http://www.w3.org/2000/svg"
   xmlns:xlink="http://www.w3.org/1999/xlink"
   xmlns:sodipodi="http://sodipodi.sourceforge.net/DTD/sodipodi-0.dtd"
   xmlns:inkscape="http://www.inkscape.org/namespaces/inkscape"
   version="1.1"
   id="Layer_1"
   x="0px"
   y="0px"
   width="146.35674"
   height="151.40292"
   viewBox="0 0 146.35674 151.40292"
   enable-background="new 0 0 360 424"
   xml:space="preserve"
   inkscape:version="0.48.4 r9939"
   sodipodi:docname="logo.svg"><metadata
   id="metadata5146"><rdf:RDF><cc:Work
       rdf:about=""><dc:format>image/svg+xml</dc:format><dc:type
         rdf:resource="http://purl.org/dc/dcmitype/StillImage" /><dc:title></dc:title></cc:Work></rdf:RDF></metadata><defs
   id="defs5144"><linearGradient
     inkscape:collect="always"
     xlink:href="#linearGradient3811"
     id="linearGradient4051"
     gradientUnits="userSpaceOnUse"
     gradientTransform="matrix(0.39806304,0,0,0.398063,-855.24613,-1189.033)"
     x1="294.02014"
     y1="7.5578938"
     x2="294.02014"
     y2="296.04413" /><linearGradient
     id="linearGradient3811"><stop
       style="stop-color:#111111;stop-opacity:1;"
       offset="0"
       id="stop3813" /><stop
       style="stop-color:#4b4b4b;stop-opacity:1;"
       offset="1"
       id="stop3815" /></linearGradient></defs><sodipodi:namedview
   pagecolor="#ffffff"
   bordercolor="#666666"
   borderopacity="1"
   objecttolerance="10"
   gridtolerance="10"
   guidetolerance="10"
   inkscape:pageopacity="0"
   inkscape:pageshadow="2"
   inkscape:window-width="1046"
   inkscape:window-height="847"
   id="namedview5142"
   showgrid="false"
   inkscape:zoom="2.990248"
   inkscape:cx="82.774546"
   inkscape:cy="71.04369"
   inkscape:window-x="409"
   inkscape:window-y="304"
   inkscape:window-maximized="0"
   inkscape:current-layer="layer8"
   fit-margin-top="0"
   fit-margin-left="0"
   fit-margin-right="0"
   fit-margin-bottom="0" />
<g
   inkscape:groupmode="layer"
   id="layer7"
   inkscape:label="Face BG"
   style="display:inline"
   transform="translate(-7.0580497,-16.528)"><path
     d="m 32.382461,43.541311 c 0,0 2.388241,9.211193 2.728764,12.282146 0.341772,3.07012 -6.140656,9.893072 -6.140656,13.304964 0,3.411892 1.362925,9.552549 8.869421,12.623502 7.506496,3.070536 6.834705,10.916723 6.834705,15.694038 0,4.776069 -1.034572,13.986429 -1.034572,13.986429 l -0.154762,20.68927 7.660009,6.26201 9.467989,3.79279 16.89847,7.50944 19.556045,-9.90289 13.766366,-8.25516 1.71728,-29.30666 c 0,0 -2.38782,-17.398315 3.75242,-20.810623 6.14232,-3.411892 12.6235,-7.504415 11.59985,-10.916723 -1.02365,-3.411892 -6.48077,-8.188375 -6.48077,-8.188375 0,0 -1.365,-8.528065 -0.34219,-10.575367 1.02282,-2.046885 3.75242,-10.917555 3.75242,-10.917555 l -9.55255,-3.752415 -0.10089,-10.935863 7.71629,-5.162097 -15.76039,-2.257766 -11.432484,10.006125 c 0,0 -10.272835,-2.567763 -18.972411,-2.226599 -2.17479,0.08529 -16.994541,4.503434 -16.994541,4.503434 l -12.280189,-12.566428 -14.763449,2.572388 7.250922,5.614998 c 0,0 2.672082,9.086385 -2.445756,11.13327 -5.117839,2.047718 -6.138159,-4.16e-4 -5.115341,5.799717 z"
     id="path4932"
     style="fill:#d3d3d3;fill-opacity:1;display:inline"
     inkscape:connector-curvature="0"
     sodipodi:nodetypes="ccscsccccccccccccccccccscccccc" /></g><g
   inkscape:groupmode="layer"
   id="layer6"
   inkscape:label="Face"
   style="display:inline"
   transform="translate(-7.0580497,-16.528)"><path
     d="M 39.861066,37.587567 38.334956,27.67493 27.493997,22.169528 48.006979,16.528 61.914728,28.016702 57.969987,29.871679 46.570371,19.534844 l -12.638072,1.011995 7.086878,5.426724 3.084691,10.225686 z"
     id="path4970"
     inkscape:connector-curvature="0"
     style="fill:#463014;display:inline"
     sodipodi:nodetypes="ccccccccccc" /><path
     d="M 42.297596,90.986844 41.8306,134.40609 76.855689,149.46371 45.1271,131.24826 46.156997,89.755882 30.440896,70.868919 l 4.863903,-7.740033 0,-14.234118 -2.546847,-7.242153 5.925436,-2.927334 28.037379,13.037708 -27.914158,-17.029072 -9.881832,5.872151 3.203749,10.664453 -0.455419,10.245251 -5.969562,9.213691 z"
     id="path4988"
     inkscape:connector-curvature="0"
     style="fill:#463014;display:inline"
     sodipodi:nodetypes="ccccccccccccccccc" /><path
     d="m 114.98097,37.587567 1.52611,-9.912637 10.84304,-5.505402 -20.51506,-5.641528 -13.906082,11.488702 3.943075,1.854977 11.401697,-10.336835 12.63641,1.011995 -7.08688,5.426724 -3.08511,10.225686 z"
     id="path5062"
     inkscape:connector-curvature="0"
     style="fill:#463014;display:inline"
     sodipodi:nodetypes="ccccccccccc" /><path
     d="m 112.54611,90.986844 0.22497,42.935196 -34.642292,15.54651 32.313482,-18.70434 -1.75598,-41.008328 15.71652,-18.886963 -4.86349,-7.740033 -0.002,-14.234118 2.54851,-7.242153 -5.9271,-2.927334 -28.03738,13.037708 27.91457,-17.029072 9.88184,5.872151 -3.20417,10.664453 0.45417,10.245251 5.96998,9.213691 z"
     id="path5080"
     inkscape:connector-curvature="0"
     style="fill:#463014;display:inline"
     sodipodi:nodetypes="ccccccccccccccccc" /><path
     d="m 99.407243,29.269727 c 0,0 -13.776618,-4.692392 -21.970404,-4.696139 l 0,-0.0017 c 0,0 -0.01082,0 -0.01582,0 0,0 -0.01082,0 -0.01582,0 l 0,8.33e-4 -21.971237,4.696139 -9.592512,8.160899 4.90012,1.090674 0.155275,-0.196072 0.08201,-0.179836 6.196023,-4.736519 20.245309,-4.295254 20.242812,4.295254 c 0,0 6.122761,4.412647 6.197691,4.736519 l 0.0816,0.179836 0.15361,0.196072 4.90178,-1.090674 z"
     id="path5082"
     inkscape:connector-curvature="0"
     style="fill:#463014;display:inline"
     sodipodi:nodetypes="ccccccccccccccccccc" /></g><g
   inkscape:groupmode="layer"
   id="layer8"
   inkscape:label="Nose"
   style="display:inline"
   transform="translate(-7.0580497,-16.528)"><path
     d="m 51.078348,119.94255 6.28719,-1.32546 7.351637,-26.887589 z"
     id="path5026"
     inkscape:connector-curvature="0"
     style="fill:#463014;display:inline"
     sodipodi:nodetypes="cccc" /><path
     d="m 103.30369,119.26942 -25.861856,-3.34571 -25.902656,3.34571 -0.954131,9.14791 26.816824,20.68117 0,0.002 c 0.0067,0 0.01249,-0.002 0.01957,-0.002 0.0062,0 0.01249,0.002 0.01957,0.002 l 0,-0.002 26.816409,-20.68117 z m -2.76248,8.42898 -23.12019,17.62978 -23.120607,-17.62978 0.232705,-6.28261 22.888318,-1.97819 22.887484,1.97819 z"
     id="path5126"
     inkscape:connector-curvature="0"
     style="fill:#463014;display:inline"
     sodipodi:nodetypes="ccccccsccccccccccc" /><path
     d="M 103.76286,119.94255 97.475669,118.61709 90.125281,91.729501 z"
     id="path5128"
     inkscape:connector-curvature="0"
     style="fill:#463014;display:inline"
     sodipodi:nodetypes="cccc" /><path
     style="fill:#453014;fill-opacity:1;fill-rule:nonzero;stroke:none;display:inline;enable-background:new"
     d="m 67.804644,122.07305 c -0.211697,0 -0.420173,0.0792 -0.581785,0.24075 l -1.170258,1.16357 0.0068,0.007 -0.04682,0.0401 0.0068,0.007 1.404311,1.40434 c 0.12281,-0.0491 0.254203,-0.0803 0.394545,-0.0803 0.590921,0 1.069952,0.47903 1.069952,1.06995 0,0.14256 -0.02966,0.27686 -0.08025,0.40124 l 1.176951,1.17694 c 0.124378,-0.0506 0.258671,-0.0802 0.401232,-0.0802 0.59092,0 1.069951,0.47903 1.069951,1.06995 0,0.59091 -0.479031,1.06996 -1.069951,1.06996 -0.590921,0 -1.069951,-0.47905 -1.069951,-1.06996 0,-0.15102 0.03721,-0.29103 0.09362,-0.42129 l -1.170263,-1.17027 0,3.39711 c 0.379501,0.16441 0.64866,0.53641 0.64866,0.97632 0,0.59092 -0.479031,1.06996 -1.069952,1.06996 -0.59092,0 -1.06995,-0.47904 -1.06995,-1.06996 0,-0.4528 0.284754,-0.83348 0.682092,-0.98971 l 0,-3.37034 c -0.397338,-0.15624 -0.682092,-0.53693 -0.682092,-0.98972 0,-0.15315 0.03563,-0.29624 0.09362,-0.42796 l -1.404315,-1.39762 -3.79833,3.79832 c -0.322956,0.32328 -0.322956,0.84725 0,1.17025 l 5.610564,5.60389 c 0.322848,0.32294 0.840232,0.32294 1.163577,0 l 5.583811,-5.58382 c 0.323063,-0.32307 0.323063,-0.84061 0,-1.16357 l -5.610565,-5.61057 c -0.161398,-0.16151 -0.370089,-0.24074 -0.581785,-0.24074 z"
     id="path3891"
     inkscape:connector-curvature="0" /><path
     style="fill:#453014;fill-opacity:1;fill-rule:nonzero;stroke:none;display:inline;enable-background:new"
     d="m 86.465222,122.0734 c -0.21169,0 -0.42017,0.0792 -0.58178,0.24075 l -1.17026,1.16357 0.007,0.007 -0.0468,0.0401 0.007,0.007 1.40431,1.40434 c 0.12281,-0.0491 0.2542,-0.0803 0.39455,-0.0803 0.59092,0 1.06995,0.47903 1.06995,1.06995 0,0.14256 -0.0297,0.27686 -0.0802,0.40124 l 1.17695,1.17694 c 0.12438,-0.0506 0.25867,-0.0802 0.40123,-0.0802 0.59092,0 1.06995,0.47903 1.06995,1.06995 0,0.59091 -0.47903,1.06996 -1.06995,1.06996 -0.59092,0 -1.06995,-0.47905 -1.06995,-1.06996 0,-0.15102 0.0372,-0.29103 0.0936,-0.42129 l -1.17026,-1.17027 0,3.39711 c 0.3795,0.16441 0.64866,0.53641 0.64866,0.97632 0,0.59092 -0.47903,1.06996 -1.06995,1.06996 -0.59092,0 -1.06995,-0.47904 -1.06995,-1.06996 0,-0.4528 0.28475,-0.83348 0.68209,-0.98971 l 0,-3.37034 c -0.39734,-0.15624 -0.68209,-0.53693 -0.68209,-0.98972 0,-0.15315 0.0356,-0.29624 0.0936,-0.42796 l -1.40432,-1.39762 -3.79833,3.79832 c -0.32296,0.32328 -0.32296,0.84725 0,1.17025 l 5.61056,5.60389 c 0.32285,0.32294 0.84024,0.32294 1.16358,0 l 5.58381,-5.58382 c 0.32307,-0.32307 0.32307,-0.84061 0,-1.16357 l -5.61056,-5.61057 c -0.1614,-0.16151 -0.37009,-0.24074 -0.58179,-0.24074 z"
     id="path3891-5"
     inkscape:connector-curvature="0" /></g><g
   inkscape:groupmode="layer"
   id="layer9"
   inkscape:label="Eyes"
   transform="translate(-7.0580497,-16.528)"><path
     style="fill:#453014;fill-opacity:1;stroke:none;display:inline"
     d="m 40.666037,52.070201 27.409629,14.521656 9.983639,-1.93622 8.531475,1.694194 26.92557,-14.27963 0,17.668019 -72.850313,0 z"
     id="rect5656"
     inkscape:connector-curvature="0"
     sodipodi:nodetypes="cccccccc" /><path
     sodipodi:type="arc"
     style="fill:#00ffff;fill-opacity:1;stroke:none;display:inline"
     id="path5659"
     sodipodi:cx="114.82558"
     sodipodi:cy="134.17442"
     sodipodi:rx="10.174418"
     sodipodi:ry="10.174418"
     d="m 125,134.17442 c 0,5.61918 -4.55525,10.17442 -10.17442,10.17442 -5.61918,0 -10.17442,-4.55524 -10.17442,-10.17442 C 104.65116,128.55525 109.2064,124 114.82558,124 120.44475,124 125,128.55525 125,134.17442 z"
     transform="matrix(0.53522677,0,0,0.36871177,-10.021456,15.789017)" /><path
     sodipodi:type="arc"
     style="fill:#00ffff;fill-opacity:1;stroke:none;display:inline"
     id="path5659-4"
     sodipodi:cx="114.82558"
     sodipodi:cy="134.17442"
     sodipodi:rx="10.174418"
     sodipodi:ry="10.174418"
     d="m 125,134.17442 c 0,5.61918 -4.55525,10.17442 -10.17442,10.17442 -5.61918,0 -10.17442,-4.55524 -10.17442,-10.17442 C 104.65116,128.55525 109.2064,124 114.82558,124 120.44475,124 125,128.55525 125,134.17442 z"
     transform="matrix(0.53522677,0,0,0.36871177,41.772453,15.78916)" /></g><g
   id="Layer_2"
   display="none"
   style="display:none"
   transform="translate(-7.0580497,-16.528)">
	<g
   id="O3btSA_1_"
   display="inline"
   style="display:inline">
		
			<image
   overflow="visible"
   enable-background="new    "
   width="190"
   height="225"
   id="O3btSA_2_"
   xlink:href="C:\Users\whoover\Desktop\9AEA89CAF88516A3.jpeg"
   transform="matrix(1.8929,0,0,1.8844,0.1777,-0.7471)"
   sodipodi:absref="C:\Users\whoover\Desktop\9AEA89CAF88516A3.jpeg"
   style="overflow:visible">
		</image>
	</g>
</g>

<g
   inkscape:groupmode="layer"
   id="layer11"
   inkscape:label="Horns BG"
   transform="translate(-7.0580497,-16.528)"><path
     style="fill:#ffffff;fill-opacity:1;stroke:none"
     d="m 35.170823,99.142582 6.141949,9.895358 12.283895,4.43585 -0.682441,14.67243 -20.473157,-13.30755 z"
     id="rect6225"
     inkscape:connector-curvature="0"
     sodipodi:nodetypes="cccccc" /><path
     style="fill:#ffffff;fill-opacity:1;stroke:none"
     d="m 120.37327,99.14269 -6.14195,9.89536 -12.28389,4.43585 0.68244,14.67243 20.47316,-13.30755 z"
     id="rect6225-5"
     inkscape:connector-curvature="0"
     sodipodi:nodetypes="cccccc" /></g><g
   inkscape:groupmode="layer"
   id="layer5"
   inkscape:label="Horns"
   style="display:inline"
   transform="translate(-7.0580497,-16.528)"><g
     id="Layer_1_1_"><g
       id="g4930"><path
         style="fill:#87ccee"
         inkscape:connector-curvature="0"
         d="M 113.063,69.061"
         id="path4956" /><path
         style="fill:#463014"
         inkscape:connector-curvature="0"
         d="M 145.249,257.84"
         id="path4966" /><path
         style="fill:#463014"
         inkscape:connector-curvature="0"
         d="M 145.249,257.84"
         id="path4978" /><g
         id="g4984"><path
           style="fill:#463014"
           inkscape:connector-curvature="0"
           d="M 145.249,257.84"
           id="path4986" /></g><g
         id="g4990"><g
           id="g4992" /><g
           id="g4996" /></g><g
         id="g5000"><g
           id="g5002" /><g
           id="g5006" /></g><g
         id="g5014" /><path
         style="fill:#463014"
         inkscape:connector-curvature="0"
         d="M 176.191,294.839"
         id="path5024" /><path
         style="fill:#87ccee"
         inkscape:connector-curvature="0"
         d="M 239.106,69.061"
         id="path5050" /><path
         style="fill:#463014"
         inkscape:connector-curvature="0"
         d="M 206.916,257.84"
         id="path5060" /><path
         style="fill:#463014"
         inkscape:connector-curvature="0"
         d="M 206.916,257.84"
         id="path5070" /><g
         id="g5076"><path
           style="fill:#463014"
           inkscape:connector-curvature="0"
           d="M 206.916,257.84"
           id="path5078" /></g><g
         id="g5084"><g
           id="g5086" /><g
           id="g5090" /></g><g
         id="g5094"><g
           id="g5096" /><g
           id="g5100" /></g><g
         id="g5112" /><g
         id="g5122"><path
           style="fill:#463014"
           inkscape:connector-curvature="0"
           d="M 175.978,294.839"
           id="path5124" /></g></g><g
       id="g5130" /></g><path
     d="m 57.021764,117.86643 0.14354,-5.33712 -14.674981,-6.53769 -7.898208,-9.926069 -5.621962,19.293259 25.280963,15.36027 -1.146618,-4.51464 -19.326443,-12.06567 1.487932,-11.09757 5.069227,6.68653 z"
     id="path5022"
     inkscape:connector-curvature="0"
     style="fill:#463014"
     sodipodi:nodetypes="ccccccccccc" /><g
     style="fill:#453014;fill-opacity:1;display:inline;enable-background:new"
     id="g3889"
     transform="matrix(0.28897663,0,0,0.28897663,381.32532,609.50578)" /><path
     d="m 97.928095,117.86634 -0.14354,-5.33713 14.674985,-6.53768 7.8982,-9.926074 5.62197,19.293264 -25.28097,15.36027 1.14662,-4.51464 19.32644,-12.06568 -1.48793,-11.09756 -5.06922,6.68653 z"
     id="path5022-2"
     inkscape:connector-curvature="0"
     style="fill:#463014"
     sodipodi:nodetypes="ccccccccccc" /></g><g
   inkscape:groupmode="layer"
   id="layer10"
   inkscape:label="Name"
   transform="translate(-7.0580497,-16.528)"><text
     xml:space="preserve"
     style="font-size:19.98180008px;font-style:normal;font-weight:bold;line-height:127.99999714%;letter-spacing:0px;word-spacing:0px;fill:#000000;fill-opacity:1;stroke:none;font-family:Sans;-inkscape-font-specification:Sans Bold"
     x="9.1701727"
     y="167.39323"
     id="text6246"
     sodipodi:linespacing="128%"><tspan
       sodipodi:role="line"
       id="tspan6248"
       x="9.1701727"
       y="167.39323"
       style="font-size:16px;font-style:normal;font-variant:normal;font-weight:normal;font-stretch:normal;line-height:127.99999714%;letter-spacing:1.8191762px;word-spacing:0.99492711px;fill:#453014;fill-opacity:1;font-family:Gill Sans Ultra Bold;-inkscape-font-specification:Gill Sans Ultra Bold"
       dx="0.012488624">RELEASEBOT</tspan></text>
</g></svg>